<?xml version="1.0" encoding="UTF-8"?>
<svg id="Layer_2" data-name="Layer 2" xmlns="http://www.w3.org/2000/svg" viewBox="0 0 826 826">
  <defs>
    <style>
      .cls-1 {
        fill: #e5e5e5;
      }

      .cls-2 {
        fill: #ccc;
      }

      .cls-3 {
        fill: #050505;
      }

      .cls-4 {
        fill: #fff;
      }

      .cls-5 {
        fill: #7f7f7f;
      }

      .cls-6 {
        fill: #333;
      }
    </style>
  </defs>
  <path d="M229.9,826h366.2c139.5,0,229.9-108.9,229.9-229.9V229.9C826,108.9,735.7,0,596.1,0H229.9C90.4,0,0,108.9,0,229.9v366.2c0,121,90.3,229.9,229.9,229.9h0Z"/>
  <g>
    <g>
      <rect class="cls-4" x="278.14" y="602.14" width="21.58" height="21.58"/>
      <rect class="cls-4" x="299.72" y="602.14" width="21.58" height="21.58"/>
      <rect class="cls-4" x="321.3" y="602.14" width="21.58" height="21.58"/>
      <rect class="cls-4" x="353.66" y="602.14" width="21.58" height="21.58"/>
      <rect class="cls-4" x="375.24" y="602.14" width="21.58" height="21.58"/>
      <rect class="cls-4" x="407.61" y="602.14" width="21.58" height="21.58"/>
      <rect class="cls-4" x="429.18" y="602.14" width="21.58" height="21.58"/>
      <rect class="cls-4" x="429.18" y="623.72" width="21.58" height="21.58"/>
      <rect class="cls-4" x="429.18" y="645.29" width="21.58" height="21.58"/>
      <rect class="cls-4" x="429.18" y="666.87" width="21.58" height="21.58"/>
      <rect class="cls-4" x="450.76" y="602.14" width="21.58" height="21.58"/>
      <rect class="cls-4" x="353.66" y="623.72" width="21.58" height="21.58"/>
      <rect class="cls-4" x="353.66" y="645.29" width="21.58" height="21.58"/>
      <rect class="cls-4" x="353.66" y="666.87" width="21.58" height="21.58"/>
      <rect class="cls-4" x="375.24" y="666.87" width="21.58" height="21.58"/>
      <rect class="cls-4" x="321.3" y="623.72" width="21.58" height="21.58"/>
      <rect class="cls-4" x="321.3" y="645.29" width="21.58" height="21.58"/>
      <rect class="cls-4" x="321.3" y="666.87" width="21.58" height="21.58"/>
      <rect class="cls-4" x="278.14" y="623.72" width="21.58" height="21.58"/>
      <rect class="cls-4" x="278.14" y="645.29" width="21.58" height="21.58"/>
      <rect class="cls-4" x="278.14" y="666.87" width="21.58" height="21.58"/>
      <rect class="cls-4" x="299.72" y="666.87" width="21.58" height="21.58"/>
      <rect class="cls-4" x="483.12" y="602.14" width="21.58" height="21.58"/>
      <rect class="cls-4" x="504.7" y="602.14" width="21.58" height="21.58"/>
      <rect class="cls-4" x="526.28" y="602.14" width="21.58" height="21.58"/>
      <rect class="cls-4" x="526.28" y="623.72" width="21.58" height="21.58"/>
      <rect class="cls-4" x="526.28" y="645.29" width="21.58" height="21.58"/>
      <rect class="cls-4" x="526.28" y="666.87" width="21.58" height="21.58"/>
      <rect class="cls-4" x="483.12" y="623.72" width="21.58" height="21.58"/>
      <rect class="cls-4" x="483.12" y="645.29" width="21.58" height="21.58"/>
      <rect class="cls-4" x="483.12" y="666.87" width="21.58" height="21.58"/>
      <rect class="cls-4" x="504.7" y="666.87" width="21.58" height="21.58"/>
    </g>
    <g>
      <rect class="cls-2" x="263.15" y="399.8" width="37.46" height="37.46"/>
      <rect class="cls-2" x="150.76" y="287.41" width="37.46" height="37.46"/>
      <rect class="cls-1" x="225.68" y="399.8" width="37.46" height="37.46"/>
      <rect class="cls-2" x="225.68" y="474.72" width="37.46" height="37.46"/>
      <rect class="cls-1" x="338.07" y="437.26" width="37.46" height="37.46"/>
      <rect class="cls-4" x="338.07" y="474.72" width="37.46" height="37.46"/>
      <rect class="cls-2" x="450.46" y="474.72" width="37.46" height="37.46"/>
      <rect class="cls-4" x="413" y="512.19" width="37.46" height="37.46"/>
      <rect class="cls-4" x="225.68" y="512.19" width="37.46" height="37.46"/>
      <rect class="cls-4" x="300.61" y="512.19" width="37.46" height="37.46"/>
      <rect class="cls-4" x="525.39" y="474.72" width="37.46" height="37.46"/>
      <rect class="cls-4" x="562.85" y="512.19" width="37.46" height="37.46"/>
      <rect class="cls-1" x="413" y="437.26" width="37.46" height="37.46"/>
      <rect class="cls-4" x="487.93" y="437.26" width="37.46" height="37.46"/>
      <rect class="cls-4" x="562.85" y="362.33" width="37.46" height="37.46"/>
      <rect class="cls-1" x="562.85" y="287.41" width="37.46" height="37.46"/>
      <rect class="cls-2" x="600.32" y="249.94" width="37.46" height="37.46"/>
      <rect class="cls-1" x="600.32" y="399.8" width="37.46" height="37.46"/>
      <rect class="cls-4" x="637.78" y="437.26" width="37.46" height="37.46"/>
      <rect class="cls-4" x="263.15" y="437.26" width="37.46" height="37.46"/>
      <rect class="cls-4" x="188.22" y="362.33" width="37.46" height="37.46"/>
      <rect class="cls-1" x="150.76" y="399.8" width="37.46" height="37.46"/>
      <rect class="cls-1" x="263.15" y="362.33" width="37.46" height="37.46"/>
      <rect class="cls-4" x="263.15" y="324.87" width="37.46" height="37.46"/>
      <rect class="cls-4" x="263.15" y="287.41" width="37.46" height="37.46"/>
      <rect class="cls-1" x="225.68" y="287.41" width="37.46" height="37.46"/>
      <rect class="cls-1" x="188.22" y="249.94" width="37.46" height="37.46"/>
      <rect class="cls-4" x="263.15" y="249.94" width="37.46" height="37.46"/>
      <rect class="cls-5" x="263.15" y="212.48" width="37.46" height="37.46"/>
      <rect class="cls-1" x="263.15" y="175.02" width="37.46" height="37.46"/>
      <rect class="cls-1" x="300.61" y="399.8" width="37.46" height="37.46"/>
      <rect class="cls-4" x="300.61" y="362.33" width="37.46" height="37.46"/>
      <rect class="cls-4" x="300.61" y="324.87" width="37.46" height="37.46"/>
      <rect class="cls-4" x="300.61" y="287.41" width="37.46" height="37.46"/>
      <rect class="cls-6" x="300.61" y="249.94" width="37.46" height="37.46"/>
      <rect class="cls-5" x="300.61" y="212.48" width="37.46" height="37.46"/>
      <rect class="cls-2" x="300.61" y="175.02" width="37.46" height="37.46"/>
      <rect class="cls-4" x="338.07" y="399.8" width="37.46" height="37.46"/>
      <rect class="cls-4" x="338.07" y="362.33" width="37.46" height="37.46"/>
      <rect class="cls-4" x="338.07" y="324.87" width="37.46" height="37.46"/>
      <rect class="cls-4" x="338.07" y="287.41" width="37.46" height="37.46"/>
      <rect class="cls-3" x="338.07" y="249.94" width="37.46" height="37.46"/>
      <rect class="cls-5" x="338.07" y="212.48" width="37.46" height="37.46"/>
      <rect class="cls-4" x="338.07" y="175.02" width="37.46" height="37.46"/>
      <rect class="cls-4" x="375.54" y="399.8" width="37.46" height="37.46"/>
      <rect class="cls-4" x="375.54" y="362.33" width="37.46" height="37.46"/>
      <rect class="cls-4" x="375.54" y="324.87" width="37.46" height="37.46"/>
      <rect class="cls-4" x="375.54" y="287.41" width="37.46" height="37.46"/>
      <rect class="cls-4" x="375.54" y="249.94" width="37.46" height="37.46"/>
      <rect class="cls-5" x="375.54" y="212.48" width="37.46" height="37.46"/>
      <rect class="cls-4" x="375.54" y="175.02" width="37.46" height="37.46"/>
      <rect class="cls-4" x="413" y="399.8" width="37.46" height="37.46"/>
      <rect class="cls-3" x="413" y="362.33" width="37.46" height="37.46"/>
      <rect class="cls-4" x="413" y="324.87" width="37.46" height="37.46"/>
      <rect class="cls-4" x="413" y="287.41" width="37.46" height="37.46"/>
      <rect class="cls-4" x="413" y="249.94" width="37.46" height="37.46"/>
      <rect class="cls-5" x="413" y="212.48" width="37.46" height="37.46"/>
      <rect class="cls-4" x="413" y="175.02" width="37.46" height="37.46"/>
      <rect class="cls-4" x="450.46" y="399.8" width="37.46" height="37.46"/>
      <rect class="cls-4" x="450.46" y="362.33" width="37.46" height="37.46"/>
      <rect class="cls-4" x="450.46" y="324.87" width="37.46" height="37.46"/>
      <rect class="cls-4" x="450.46" y="287.41" width="37.46" height="37.46"/>
      <rect class="cls-6" x="450.46" y="249.94" width="37.46" height="37.46"/>
      <rect class="cls-5" x="450.46" y="212.48" width="37.46" height="37.46"/>
      <rect class="cls-4" x="450.46" y="175.02" width="37.46" height="37.46"/>
      <rect class="cls-4" x="487.93" y="399.8" width="37.46" height="37.46"/>
      <rect class="cls-4" x="487.93" y="362.33" width="37.46" height="37.46"/>
      <rect class="cls-4" x="487.93" y="324.87" width="37.46" height="37.46"/>
      <rect class="cls-4" x="487.93" y="287.41" width="37.46" height="37.46"/>
      <rect class="cls-3" x="487.93" y="249.94" width="37.46" height="37.46"/>
      <rect class="cls-5" x="487.93" y="212.48" width="37.46" height="37.46"/>
      <rect class="cls-4" x="487.93" y="175.02" width="37.46" height="37.46"/>
      <rect class="cls-2" x="525.39" y="399.8" width="37.46" height="37.46"/>
      <rect class="cls-1" x="525.39" y="362.33" width="37.46" height="37.46"/>
      <rect class="cls-4" x="525.39" y="324.87" width="37.46" height="37.46"/>
      <rect class="cls-4" x="525.39" y="287.41" width="37.46" height="37.46"/>
      <rect class="cls-4" x="525.39" y="249.94" width="37.46" height="37.46"/>
      <rect class="cls-5" x="525.39" y="212.48" width="37.46" height="37.46"/>
      <rect class="cls-5" x="562.85" y="175.02" width="37.46" height="37.46"/>
      <rect class="cls-5" x="600.32" y="137.55" width="37.46" height="37.46"/>
      <rect class="cls-1" x="525.39" y="175.02" width="37.46" height="37.46"/>
      <rect class="cls-1" x="300.61" y="137.55" width="37.46" height="37.46"/>
      <rect class="cls-1" x="338.07" y="137.55" width="37.46" height="37.46"/>
      <rect class="cls-4" x="375.54" y="137.55" width="37.46" height="37.46"/>
      <rect class="cls-4" x="413" y="137.55" width="37.46" height="37.46"/>
      <rect class="cls-4" x="450.46" y="137.55" width="37.46" height="37.46"/>
      <rect class="cls-1" x="487.93" y="137.55" width="37.46" height="37.46"/>
    </g>
  </g>
</svg>