<?xml version="1.0" encoding="UTF-8"?>
<svg id="Layer_2" data-name="Layer 2" xmlns="http://www.w3.org/2000/svg" viewBox="0 0 838.47 826">
  <defs>
    <style>
      .cls-1 {
        fill: #5b5b5b;
      }

      .cls-2 {
        fill: #e5e5e5;
      }

      .cls-3 {
        fill: #fff;
      }

      .cls-4 {
        fill: #7f7f7f;
      }

      .cls-5 {
        fill: #7f7f7f;
      }

      .cls-6 {
        fill: #333;
      }
    </style>
  </defs>
  <path class="cls-3" d="M236.14,826h366.2c139.5,0,229.9-108.9,229.9-229.9V229.9C832.24,108.9,741.94,0,602.34,0H236.14C96.64,0,6.24,108.9,6.24,229.9v366.2c0,121,90.3,229.9,229.9,229.9h0Z"/>
  <g>
    <rect x="284.38" y="602.14" width="21.58" height="21.58"/>
    <rect x="305.96" y="602.14" width="21.58" height="21.58"/>
    <rect x="327.53" y="602.14" width="21.58" height="21.58"/>
    <rect x="359.9" y="602.14" width="21.58" height="21.58"/>
    <rect x="381.48" y="602.14" width="21.58" height="21.58"/>
    <rect x="413.84" y="602.14" width="21.58" height="21.58"/>
    <rect x="435.42" y="602.14" width="21.58" height="21.58"/>
    <rect x="435.42" y="623.72" width="21.58" height="21.58"/>
    <rect x="435.42" y="645.29" width="21.58" height="21.58"/>
    <rect x="435.42" y="666.87" width="21.58" height="21.58"/>
    <rect x="457" y="602.14" width="21.58" height="21.58"/>
    <rect x="359.9" y="623.72" width="21.58" height="21.58"/>
    <rect x="359.9" y="645.29" width="21.58" height="21.58"/>
    <rect x="359.9" y="666.87" width="21.58" height="21.58"/>
    <rect x="381.48" y="666.87" width="21.58" height="21.58"/>
    <rect x="327.53" y="623.72" width="21.58" height="21.58"/>
    <rect x="327.53" y="645.29" width="21.58" height="21.58"/>
    <rect x="327.53" y="666.87" width="21.58" height="21.58"/>
    <rect x="284.38" y="623.72" width="21.58" height="21.58"/>
    <rect x="284.38" y="645.29" width="21.58" height="21.58"/>
    <rect x="284.38" y="666.87" width="21.58" height="21.58"/>
    <rect x="305.96" y="666.87" width="21.58" height="21.58"/>
    <rect x="489.36" y="602.14" width="21.58" height="21.58"/>
    <rect x="510.94" y="602.14" width="21.58" height="21.58"/>
    <rect x="532.51" y="602.14" width="21.58" height="21.58"/>
    <rect x="532.51" y="623.72" width="21.58" height="21.58"/>
    <rect x="532.51" y="645.29" width="21.58" height="21.58"/>
    <rect x="532.51" y="666.87" width="21.58" height="21.58"/>
    <rect x="489.36" y="623.72" width="21.58" height="21.58"/>
    <rect x="489.36" y="645.29" width="21.58" height="21.58"/>
    <rect x="489.36" y="666.87" width="21.58" height="21.58"/>
    <rect x="510.94" y="666.87" width="21.58" height="21.58"/>
    <rect class="cls-1" x="269.38" y="399.8" width="37.46" height="37.46"/>
    <rect class="cls-1" x="156.99" y="287.41" width="37.46" height="37.46"/>
    <rect class="cls-6" x="231.92" y="399.8" width="37.46" height="37.46"/>
    <rect class="cls-5" x="231.92" y="474.72" width="37.46" height="37.46"/>
    <rect class="cls-6" x="344.31" y="437.26" width="37.46" height="37.46"/>
    <rect x="344.31" y="474.72" width="37.46" height="37.46"/>
    <rect class="cls-5" x="456.7" y="474.72" width="37.46" height="37.46"/>
    <rect x="419.24" y="512.19" width="37.46" height="37.46"/>
    <rect x="231.92" y="512.19" width="37.46" height="37.46"/>
    <rect x="306.85" y="512.19" width="37.46" height="37.46"/>
    <rect x="531.63" y="474.72" width="37.46" height="37.46"/>
    <rect x="569.09" y="512.19" width="37.46" height="37.46"/>
    <rect class="cls-6" x="419.24" y="437.26" width="37.46" height="37.46"/>
    <rect x="494.16" y="437.26" width="37.46" height="37.46"/>
    <rect x="569.09" y="362.33" width="37.46" height="37.46"/>
    <rect class="cls-6" x="569.09" y="287.41" width="37.46" height="37.46"/>
    <rect class="cls-1" x="606.55" y="249.94" width="37.46" height="37.46"/>
    <rect class="cls-6" x="606.55" y="399.8" width="37.46" height="37.46"/>
    <rect x="644.02" y="437.26" width="37.46" height="37.46"/>
    <rect x="269.38" y="437.26" width="37.46" height="37.46"/>
    <rect x="194.46" y="362.33" width="37.46" height="37.46"/>
    <rect class="cls-6" x="156.99" y="399.8" width="37.46" height="37.46"/>
    <rect class="cls-6" x="269.38" y="362.33" width="37.46" height="37.46"/>
    <rect x="269.38" y="324.87" width="37.46" height="37.46"/>
    <rect x="269.38" y="287.41" width="37.46" height="37.46"/>
    <rect class="cls-6" x="231.92" y="287.41" width="37.46" height="37.46"/>
    <rect class="cls-6" x="194.46" y="249.94" width="37.46" height="37.46"/>
    <rect x="269.38" y="249.94" width="37.46" height="37.46"/>
    <rect class="cls-4" x="269.38" y="212.48" width="37.46" height="37.46"/>
    <rect class="cls-6" x="269.38" y="175.02" width="37.46" height="37.46"/>
    <rect class="cls-6" x="306.85" y="399.8" width="37.46" height="37.46"/>
    <rect x="306.85" y="362.33" width="37.46" height="37.46"/>
    <rect x="306.85" y="324.87" width="37.46" height="37.46"/>
    <rect x="306.85" y="287.41" width="37.46" height="37.46"/>
    <rect class="cls-2" x="306.85" y="249.94" width="37.46" height="37.46"/>
    <rect class="cls-4" x="306.85" y="212.48" width="37.46" height="37.46"/>
    <rect class="cls-1" x="306.85" y="175.02" width="37.46" height="37.46"/>
    <rect x="344.31" y="399.8" width="37.46" height="37.46"/>
    <rect x="344.31" y="362.33" width="37.46" height="37.46"/>
    <rect x="344.31" y="324.87" width="37.46" height="37.46"/>
    <rect x="344.31" y="287.41" width="37.46" height="37.46"/>
    <rect class="cls-3" x="344.31" y="249.94" width="37.46" height="37.46"/>
    <rect class="cls-4" x="344.31" y="212.48" width="37.46" height="37.46"/>
    <rect x="344.31" y="175.02" width="37.46" height="37.46"/>
    <rect x="381.77" y="399.8" width="37.46" height="37.46"/>
    <rect x="381.77" y="362.33" width="37.46" height="37.46"/>
    <rect x="381.77" y="324.87" width="37.46" height="37.46"/>
    <rect x="381.77" y="287.41" width="37.46" height="37.46"/>
    <rect x="381.77" y="249.94" width="37.46" height="37.46"/>
    <rect class="cls-4" x="381.77" y="212.48" width="37.46" height="37.46"/>
    <rect x="381.77" y="175.02" width="37.46" height="37.46"/>
    <rect x="419.24" y="399.8" width="37.46" height="37.46"/>
    <rect class="cls-3" x="419.24" y="362.33" width="37.46" height="37.46"/>
    <rect x="419.24" y="324.87" width="37.46" height="37.46"/>
    <rect x="419.24" y="287.41" width="37.46" height="37.46"/>
    <rect x="419.24" y="249.94" width="37.46" height="37.46"/>
    <rect class="cls-4" x="419.24" y="212.48" width="37.46" height="37.46"/>
    <rect x="419.24" y="175.02" width="37.46" height="37.46"/>
    <rect x="456.7" y="399.8" width="37.46" height="37.46"/>
    <rect x="456.7" y="362.33" width="37.46" height="37.46"/>
    <rect x="456.7" y="324.87" width="37.46" height="37.46"/>
    <rect x="456.7" y="287.41" width="37.46" height="37.46"/>
    <rect class="cls-2" x="456.7" y="249.94" width="37.46" height="37.46"/>
    <rect class="cls-4" x="456.7" y="212.48" width="37.46" height="37.46"/>
    <rect x="456.7" y="175.02" width="37.46" height="37.46"/>
    <rect x="494.16" y="399.8" width="37.46" height="37.46"/>
    <rect x="494.16" y="362.33" width="37.46" height="37.46"/>
    <rect x="494.16" y="324.87" width="37.46" height="37.46"/>
    <rect x="494.16" y="287.41" width="37.46" height="37.46"/>
    <rect class="cls-3" x="494.16" y="249.94" width="37.46" height="37.46"/>
    <rect class="cls-4" x="494.16" y="212.48" width="37.46" height="37.46"/>
    <rect x="494.16" y="175.02" width="37.46" height="37.46"/>
    <rect class="cls-5" x="531.63" y="399.8" width="37.46" height="37.46"/>
    <rect class="cls-6" x="531.63" y="362.33" width="37.46" height="37.46"/>
    <rect x="531.63" y="324.87" width="37.46" height="37.46"/>
    <rect x="531.63" y="287.41" width="37.46" height="37.46"/>
    <rect x="531.63" y="249.94" width="37.46" height="37.46"/>
    <rect class="cls-4" x="531.63" y="212.48" width="37.46" height="37.46"/>
    <rect class="cls-4" x="569.09" y="175.02" width="37.46" height="37.46"/>
    <rect class="cls-4" x="606.55" y="137.55" width="37.46" height="37.46"/>
    <rect class="cls-6" x="531.63" y="175.02" width="37.46" height="37.46"/>
    <rect class="cls-6" x="306.85" y="137.55" width="37.46" height="37.46"/>
    <rect class="cls-6" x="344.31" y="137.55" width="37.46" height="37.46"/>
    <rect x="381.77" y="137.55" width="37.46" height="37.46"/>
    <rect x="419.24" y="137.55" width="37.46" height="37.46"/>
    <rect x="456.7" y="137.55" width="37.46" height="37.46"/>
    <rect class="cls-6" x="494.16" y="137.55" width="37.46" height="37.46"/>
  </g>
</svg>