<?xml version="1.0" encoding="UTF-8"?>
<svg id="Layer_2" data-name="Layer 2" xmlns="http://www.w3.org/2000/svg" viewBox="0 0 800 800">
  <defs>
    <style>
      .cls-1 {
        fill: #5b5b5b;
      }

      .cls-2 {
        fill: #e5e5e5;
      }

      .cls-3 {
        fill: #fff;
      }

      .cls-4 {
        fill: #7f7f7f;
      }

      .cls-5 {
        fill: #7f7f7f;
      }

      .cls-6 {
        fill: #333;
      }
    </style>
  </defs>
  <rect class="cls-3" width="800" height="800"/>
  <g>
    <rect x="271.38" y="589.14" width="21.58" height="21.58"/>
    <rect x="292.96" y="589.14" width="21.58" height="21.58"/>
    <rect x="314.53" y="589.14" width="21.58" height="21.58"/>
    <rect x="346.9" y="589.14" width="21.58" height="21.58"/>
    <rect x="368.48" y="589.14" width="21.58" height="21.58"/>
    <rect x="400.84" y="589.14" width="21.58" height="21.58"/>
    <rect x="422.42" y="589.14" width="21.58" height="21.58"/>
    <rect x="422.42" y="610.72" width="21.58" height="21.58"/>
    <rect x="422.42" y="632.29" width="21.58" height="21.58"/>
    <rect x="422.42" y="653.87" width="21.58" height="21.58"/>
    <rect x="444" y="589.14" width="21.58" height="21.58"/>
    <rect x="346.9" y="610.72" width="21.58" height="21.58"/>
    <rect x="346.9" y="632.29" width="21.58" height="21.58"/>
    <rect x="346.9" y="653.87" width="21.58" height="21.58"/>
    <rect x="368.48" y="653.87" width="21.58" height="21.58"/>
    <rect x="314.53" y="610.72" width="21.58" height="21.58"/>
    <rect x="314.53" y="632.29" width="21.58" height="21.58"/>
    <rect x="314.53" y="653.87" width="21.58" height="21.58"/>
    <rect x="271.38" y="610.72" width="21.58" height="21.58"/>
    <rect x="271.38" y="632.29" width="21.58" height="21.58"/>
    <rect x="271.38" y="653.87" width="21.58" height="21.58"/>
    <rect x="292.96" y="653.87" width="21.58" height="21.58"/>
    <rect x="476.36" y="589.14" width="21.58" height="21.58"/>
    <rect x="497.94" y="589.14" width="21.58" height="21.58"/>
    <rect x="519.51" y="589.14" width="21.58" height="21.58"/>
    <rect x="519.51" y="610.72" width="21.58" height="21.58"/>
    <rect x="519.51" y="632.29" width="21.58" height="21.58"/>
    <rect x="519.51" y="653.87" width="21.58" height="21.58"/>
    <rect x="476.36" y="610.72" width="21.58" height="21.58"/>
    <rect x="476.36" y="632.29" width="21.58" height="21.58"/>
    <rect x="476.36" y="653.87" width="21.58" height="21.58"/>
    <rect x="497.94" y="653.87" width="21.58" height="21.58"/>
    <rect class="cls-1" x="256.38" y="386.8" width="37.46" height="37.46"/>
    <rect class="cls-1" x="143.99" y="274.41" width="37.46" height="37.46"/>
    <rect class="cls-6" x="218.92" y="386.8" width="37.46" height="37.46"/>
    <rect class="cls-5" x="218.92" y="461.72" width="37.46" height="37.46"/>
    <rect class="cls-6" x="331.31" y="424.26" width="37.46" height="37.46"/>
    <rect x="331.31" y="461.72" width="37.46" height="37.46"/>
    <rect class="cls-5" x="443.7" y="461.72" width="37.46" height="37.46"/>
    <rect x="406.24" y="499.19" width="37.46" height="37.46"/>
    <rect x="218.92" y="499.19" width="37.46" height="37.46"/>
    <rect x="293.85" y="499.19" width="37.46" height="37.46"/>
    <rect x="518.63" y="461.72" width="37.46" height="37.46"/>
    <rect x="556.09" y="499.19" width="37.46" height="37.46"/>
    <rect class="cls-6" x="406.24" y="424.26" width="37.46" height="37.46"/>
    <rect x="481.16" y="424.26" width="37.46" height="37.46"/>
    <rect x="556.09" y="349.33" width="37.46" height="37.46"/>
    <rect class="cls-6" x="556.09" y="274.41" width="37.46" height="37.46"/>
    <rect class="cls-1" x="593.55" y="236.94" width="37.46" height="37.46"/>
    <rect class="cls-6" x="593.55" y="386.8" width="37.46" height="37.46"/>
    <rect x="631.02" y="424.26" width="37.46" height="37.46"/>
    <rect x="256.38" y="424.26" width="37.46" height="37.46"/>
    <rect x="181.46" y="349.33" width="37.46" height="37.46"/>
    <rect class="cls-6" x="143.99" y="386.8" width="37.46" height="37.46"/>
    <rect class="cls-6" x="256.38" y="349.33" width="37.46" height="37.46"/>
    <rect x="256.38" y="311.87" width="37.46" height="37.46"/>
    <rect x="256.38" y="274.41" width="37.46" height="37.46"/>
    <rect class="cls-6" x="218.92" y="274.41" width="37.46" height="37.46"/>
    <rect class="cls-6" x="181.46" y="236.94" width="37.46" height="37.46"/>
    <rect x="256.38" y="236.94" width="37.46" height="37.46"/>
    <rect class="cls-4" x="256.38" y="199.48" width="37.46" height="37.46"/>
    <rect class="cls-6" x="256.38" y="162.02" width="37.46" height="37.46"/>
    <rect class="cls-6" x="293.85" y="386.8" width="37.46" height="37.46"/>
    <rect x="293.85" y="349.33" width="37.46" height="37.46"/>
    <rect x="293.85" y="311.87" width="37.46" height="37.46"/>
    <rect x="293.85" y="274.41" width="37.46" height="37.46"/>
    <rect class="cls-2" x="293.85" y="236.94" width="37.46" height="37.46"/>
    <rect class="cls-4" x="293.85" y="199.48" width="37.46" height="37.46"/>
    <rect class="cls-1" x="293.85" y="162.02" width="37.46" height="37.46"/>
    <rect x="331.31" y="386.8" width="37.46" height="37.46"/>
    <rect x="331.31" y="349.33" width="37.46" height="37.46"/>
    <rect x="331.31" y="311.87" width="37.46" height="37.46"/>
    <rect x="331.31" y="274.41" width="37.46" height="37.46"/>
    <rect class="cls-3" x="331.31" y="236.94" width="37.46" height="37.46"/>
    <rect class="cls-4" x="331.31" y="199.48" width="37.46" height="37.46"/>
    <rect x="331.31" y="162.02" width="37.46" height="37.46"/>
    <rect x="368.77" y="386.8" width="37.46" height="37.46"/>
    <rect x="368.77" y="349.33" width="37.46" height="37.46"/>
    <rect x="368.77" y="311.87" width="37.46" height="37.46"/>
    <rect x="368.77" y="274.41" width="37.46" height="37.46"/>
    <rect x="368.77" y="236.94" width="37.46" height="37.46"/>
    <rect class="cls-4" x="368.77" y="199.48" width="37.46" height="37.46"/>
    <rect x="368.77" y="162.02" width="37.46" height="37.46"/>
    <rect x="406.24" y="386.8" width="37.46" height="37.46"/>
    <rect class="cls-3" x="406.24" y="349.33" width="37.46" height="37.46"/>
    <rect x="406.24" y="311.87" width="37.46" height="37.46"/>
    <rect x="406.24" y="274.41" width="37.46" height="37.46"/>
    <rect x="406.24" y="236.94" width="37.46" height="37.46"/>
    <rect class="cls-4" x="406.24" y="199.48" width="37.46" height="37.46"/>
    <rect x="406.24" y="162.02" width="37.46" height="37.46"/>
    <rect x="443.7" y="386.8" width="37.46" height="37.46"/>
    <rect x="443.7" y="349.33" width="37.46" height="37.46"/>
    <rect x="443.7" y="311.87" width="37.46" height="37.46"/>
    <rect x="443.7" y="274.41" width="37.46" height="37.46"/>
    <rect class="cls-2" x="443.7" y="236.94" width="37.46" height="37.46"/>
    <rect class="cls-4" x="443.7" y="199.48" width="37.46" height="37.46"/>
    <rect x="443.7" y="162.02" width="37.46" height="37.46"/>
    <rect x="481.16" y="386.8" width="37.46" height="37.46"/>
    <rect x="481.16" y="349.33" width="37.46" height="37.46"/>
    <rect x="481.16" y="311.87" width="37.46" height="37.46"/>
    <rect x="481.16" y="274.41" width="37.46" height="37.46"/>
    <rect class="cls-3" x="481.16" y="236.94" width="37.46" height="37.46"/>
    <rect class="cls-4" x="481.16" y="199.48" width="37.46" height="37.46"/>
    <rect x="481.16" y="162.02" width="37.46" height="37.46"/>
    <rect class="cls-5" x="518.63" y="386.8" width="37.46" height="37.46"/>
    <rect class="cls-6" x="518.63" y="349.33" width="37.46" height="37.46"/>
    <rect x="518.63" y="311.87" width="37.46" height="37.46"/>
    <rect x="518.63" y="274.41" width="37.46" height="37.46"/>
    <rect x="518.63" y="236.94" width="37.46" height="37.46"/>
    <rect class="cls-4" x="518.63" y="199.48" width="37.46" height="37.46"/>
    <rect class="cls-4" x="556.09" y="162.02" width="37.46" height="37.46"/>
    <rect class="cls-4" x="593.55" y="124.55" width="37.46" height="37.46"/>
    <rect class="cls-6" x="518.63" y="162.02" width="37.46" height="37.46"/>
    <rect class="cls-6" x="293.85" y="124.55" width="37.46" height="37.46"/>
    <rect class="cls-6" x="331.31" y="124.55" width="37.46" height="37.46"/>
    <rect x="368.77" y="124.55" width="37.46" height="37.46"/>
    <rect x="406.24" y="124.55" width="37.46" height="37.46"/>
    <rect x="443.7" y="124.55" width="37.46" height="37.46"/>
    <rect class="cls-6" x="481.16" y="124.55" width="37.46" height="37.46"/>
  </g>
</svg>