<?xml version="1.0" encoding="UTF-8"?>
<svg id="Layer_2" data-name="Layer 2" xmlns="http://www.w3.org/2000/svg" viewBox="0 0 800 800">
  <defs>
    <style>
      .cls-1 {
        fill: none;
      }

      .cls-2 {
        fill: #333;
      }
    </style>
  </defs>
  <path class="cls-2" d="M383.66,349.82v-.05h-76.52c-.54,0-.97.43-.97.97v12.66c25.69,5.75,51.99,10.85,78.47,15.39v-27.99c0-.54-.43-.97-.97-.97Z"/>
  <rect class="cls-1" x="228.25" y="381.22" width="37.51" height="37.51" rx=".97" ry=".97"/>
  <path class="cls-1" d="M535.22,418.73h35.56c.54,0,.97-.43.97-.97v-15.26c-12.31-1.09-24.83-2.29-37.51-3.59v18.85c0,.54.43.97.97.97Z"/>
  <path d="M306.16,449.26c0,.54.43.97.97.97h76.52c.54,0,.97-.43.97-.97v-29.56c0-.54-.43-.97-.97-.97h-41.02c-.54,0-.97-.43-.97-.97v-35.56c0-.54.43-.97.97-.97h41.02c.54,0,.97-.43.97-.97v-1.46c-26.48-4.53-52.78-9.64-78.47-15.39v85.86Z"/>
  <path d="M394.44,381.22h4.77c-1.89-.31-3.78-.62-5.66-.93.02.52.41.93.9.93Z"/>
  <path d="M424.88,449.26c0,.54.4.97.9.97l36.18-.94c.5,0,.9-.43.9-.97v-57.75c-12.62-1.66-25.3-3.44-37.98-5.34v64.03Z"/>
  <path d="M197.77,349.77c-.54,0-.97.43-.97.97v98.52c0,.54.43.97.97.97h98.52c.54,0,.97-.43.97-.97v-87.89c-15.67-3.62-31.09-7.48-46.16-11.61h-53.33ZM265.75,382.19v35.56c0,.54-.43.97-.97.97h-35.56c-.54,0-.97-.43-.97-.97v-35.56c0-.54.43-.97.97-.97h35.56c.54,0,.97.43.97.97Z"/>
  <path class="cls-1" d="M602.23,349.77h-98.52c-.54,0-.97.43-.97.97v44.74c10.59,1.22,21.1,2.36,31.51,3.42v18.85c0,.54.43.97.97.97h35.56c.54,0,.97-.43.97-.97v-15.26c10.66.95,21.15,1.82,31.45,2.63v-54.38c0-.54-.43-.97-.97-.97Z"/>
  <path d="M571.75,417.75c0,.54-.43.97-.97.97h-35.56c-.54,0-.97-.43-.97-.97v-18.85c-10.4-1.07-20.92-2.21-31.51-3.42v53.77c0,.54.43.97.97.97h98.52c.54,0,.97-.43.97-.97v-44.14c-10.3-.81-20.8-1.68-31.45-2.63v15.26Z"/>
  <path class="cls-2" d="M463.77,381.22h29.17c.5,0,.9-.43.9-.97v-29.51c0-.54-.4-.97-.9-.97h-98.5c-.5,0-.9.43-.9.97v29.51s0,.03,0,.04c1.89.31,3.78.62,5.66.93h24.77c.5,0,.9.43.9.97v3.04c12.69,1.9,25.36,3.68,37.98,5.34v-8.38c0-.54.4-.97.9-.97Z"/>
  <path class="cls-2" d="M602.23,349.77h-98.52c-.54,0-.97.43-.97.97v44.74c10.59,1.22,21.1,2.36,31.51,3.42v-16.71c0-.54.43-.97.97-.97h35.56c.54,0,.97.43.97.97v20.3c10.66.95,21.15,1.82,31.45,2.63v-54.38c0-.54-.43-.97-.97-.97Z"/>
  <path class="cls-2" d="M296.29,349.77h-45.19c15.07,4.12,30.49,7.99,46.16,11.61v-10.63c0-.54-.43-.97-.97-.97Z"/>
</svg>