<?xml version="1.0" encoding="UTF-8"?>
<svg id="Layer_2" data-name="Layer 2" xmlns="http://www.w3.org/2000/svg" viewBox="0 0 800 800.5">
  <defs>
    <style>
      .cls-1 {
        fill: #e5e5e5;
      }

      .cls-2 {
        fill: #ccc;
      }

      .cls-3 {
        fill: #050505;
      }

      .cls-4 {
        fill: #fff;
      }

      .cls-5 {
        fill: #7f7f7f;
      }

      .cls-6 {
        fill: #333;
      }
    </style>
  </defs>
  <rect width="800" height="800" rx="50" ry="50"/>
  <g>
    <g>
      <rect class="cls-4" x="278.14" y="589.39" width="21.58" height="21.58"/>
      <rect class="cls-4" x="299.72" y="589.39" width="21.58" height="21.58"/>
      <rect class="cls-4" x="321.3" y="589.39" width="21.58" height="21.58"/>
      <rect class="cls-4" x="353.66" y="589.39" width="21.58" height="21.58"/>
      <rect class="cls-4" x="375.24" y="589.39" width="21.58" height="21.58"/>
      <rect class="cls-4" x="407.61" y="589.39" width="21.58" height="21.58"/>
      <rect class="cls-4" x="429.18" y="589.39" width="21.58" height="21.58"/>
      <rect class="cls-4" x="429.18" y="610.97" width="21.58" height="21.58"/>
      <rect class="cls-4" x="429.18" y="632.54" width="21.58" height="21.58"/>
      <rect class="cls-4" x="429.18" y="654.12" width="21.58" height="21.58"/>
      <rect class="cls-4" x="450.76" y="589.39" width="21.58" height="21.58"/>
      <rect class="cls-4" x="353.66" y="610.97" width="21.58" height="21.58"/>
      <rect class="cls-4" x="353.66" y="632.54" width="21.58" height="21.58"/>
      <rect class="cls-4" x="353.66" y="654.12" width="21.58" height="21.58"/>
      <rect class="cls-4" x="375.24" y="654.12" width="21.58" height="21.58"/>
      <rect class="cls-4" x="321.3" y="610.97" width="21.58" height="21.58"/>
      <rect class="cls-4" x="321.3" y="632.54" width="21.58" height="21.58"/>
      <rect class="cls-4" x="321.3" y="654.12" width="21.58" height="21.58"/>
      <rect class="cls-4" x="278.14" y="610.97" width="21.58" height="21.58"/>
      <rect class="cls-4" x="278.14" y="632.54" width="21.58" height="21.58"/>
      <rect class="cls-4" x="278.14" y="654.12" width="21.58" height="21.58"/>
      <rect class="cls-4" x="299.72" y="654.12" width="21.58" height="21.58"/>
      <rect class="cls-4" x="483.12" y="589.39" width="21.58" height="21.58"/>
      <rect class="cls-4" x="504.7" y="589.39" width="21.58" height="21.58"/>
      <rect class="cls-4" x="526.28" y="589.39" width="21.58" height="21.58"/>
      <rect class="cls-4" x="526.28" y="610.97" width="21.58" height="21.58"/>
      <rect class="cls-4" x="526.28" y="632.54" width="21.58" height="21.58"/>
      <rect class="cls-4" x="526.28" y="654.12" width="21.58" height="21.58"/>
      <rect class="cls-4" x="483.12" y="610.97" width="21.58" height="21.58"/>
      <rect class="cls-4" x="483.12" y="632.54" width="21.58" height="21.58"/>
      <rect class="cls-4" x="483.12" y="654.12" width="21.58" height="21.58"/>
      <rect class="cls-4" x="504.7" y="654.12" width="21.58" height="21.58"/>
    </g>
    <g>
      <rect class="cls-2" x="263.15" y="387.05" width="37.46" height="37.46"/>
      <rect class="cls-2" x="150.76" y="274.66" width="37.46" height="37.46"/>
      <rect class="cls-1" x="225.68" y="387.05" width="37.46" height="37.46"/>
      <rect class="cls-2" x="225.68" y="461.97" width="37.46" height="37.46"/>
      <rect class="cls-1" x="338.07" y="424.51" width="37.46" height="37.46"/>
      <rect class="cls-4" x="338.07" y="461.97" width="37.46" height="37.46"/>
      <rect class="cls-2" x="450.46" y="461.97" width="37.46" height="37.46"/>
      <rect class="cls-4" x="413" y="499.44" width="37.46" height="37.46"/>
      <rect class="cls-4" x="225.68" y="499.44" width="37.46" height="37.46"/>
      <rect class="cls-4" x="300.61" y="499.44" width="37.46" height="37.46"/>
      <rect class="cls-4" x="525.39" y="461.97" width="37.46" height="37.46"/>
      <rect class="cls-4" x="562.85" y="499.44" width="37.46" height="37.46"/>
      <rect class="cls-1" x="413" y="424.51" width="37.46" height="37.46"/>
      <rect class="cls-4" x="487.93" y="424.51" width="37.46" height="37.46"/>
      <rect class="cls-4" x="562.85" y="349.58" width="37.46" height="37.46"/>
      <rect class="cls-1" x="562.85" y="274.66" width="37.46" height="37.46"/>
      <rect class="cls-2" x="600.32" y="237.19" width="37.46" height="37.46"/>
      <rect class="cls-1" x="600.32" y="387.05" width="37.46" height="37.46"/>
      <rect class="cls-4" x="637.78" y="424.51" width="37.46" height="37.46"/>
      <rect class="cls-4" x="263.15" y="424.51" width="37.46" height="37.46"/>
      <rect class="cls-4" x="188.22" y="349.58" width="37.46" height="37.46"/>
      <rect class="cls-1" x="150.76" y="387.05" width="37.46" height="37.46"/>
      <rect class="cls-1" x="263.15" y="349.58" width="37.46" height="37.46"/>
      <rect class="cls-4" x="263.15" y="312.12" width="37.46" height="37.46"/>
      <rect class="cls-4" x="263.15" y="274.66" width="37.46" height="37.46"/>
      <rect class="cls-1" x="225.68" y="274.66" width="37.46" height="37.46"/>
      <rect class="cls-1" x="188.22" y="237.19" width="37.46" height="37.46"/>
      <rect class="cls-4" x="263.15" y="237.19" width="37.46" height="37.46"/>
      <rect class="cls-5" x="263.15" y="199.73" width="37.46" height="37.46"/>
      <rect class="cls-1" x="263.15" y="162.27" width="37.46" height="37.46"/>
      <rect class="cls-1" x="300.61" y="387.05" width="37.46" height="37.46"/>
      <rect class="cls-4" x="300.61" y="349.58" width="37.46" height="37.46"/>
      <rect class="cls-4" x="300.61" y="312.12" width="37.46" height="37.46"/>
      <rect class="cls-4" x="300.61" y="274.66" width="37.46" height="37.46"/>
      <rect class="cls-6" x="300.61" y="237.19" width="37.46" height="37.46"/>
      <rect class="cls-5" x="300.61" y="199.73" width="37.46" height="37.46"/>
      <rect class="cls-2" x="300.61" y="162.27" width="37.46" height="37.46"/>
      <rect class="cls-4" x="338.07" y="387.05" width="37.46" height="37.46"/>
      <rect class="cls-4" x="338.07" y="349.58" width="37.46" height="37.46"/>
      <rect class="cls-4" x="338.07" y="312.12" width="37.46" height="37.46"/>
      <rect class="cls-4" x="338.07" y="274.66" width="37.46" height="37.46"/>
      <rect class="cls-3" x="338.07" y="237.19" width="37.46" height="37.46"/>
      <rect class="cls-5" x="338.07" y="199.73" width="37.46" height="37.46"/>
      <rect class="cls-4" x="338.07" y="162.27" width="37.46" height="37.46"/>
      <rect class="cls-4" x="375.54" y="387.05" width="37.46" height="37.46"/>
      <rect class="cls-4" x="375.54" y="349.58" width="37.46" height="37.46"/>
      <rect class="cls-4" x="375.54" y="312.12" width="37.46" height="37.46"/>
      <rect class="cls-4" x="375.54" y="274.66" width="37.46" height="37.46"/>
      <rect class="cls-4" x="375.54" y="237.19" width="37.46" height="37.46"/>
      <rect class="cls-5" x="375.54" y="199.73" width="37.46" height="37.46"/>
      <rect class="cls-4" x="375.54" y="162.27" width="37.46" height="37.46"/>
      <rect class="cls-4" x="413" y="387.05" width="37.46" height="37.46"/>
      <rect class="cls-3" x="413" y="349.58" width="37.46" height="37.46"/>
      <rect class="cls-4" x="413" y="312.12" width="37.46" height="37.46"/>
      <rect class="cls-4" x="413" y="274.66" width="37.46" height="37.46"/>
      <rect class="cls-4" x="413" y="237.19" width="37.46" height="37.46"/>
      <rect class="cls-5" x="413" y="199.73" width="37.46" height="37.46"/>
      <rect class="cls-4" x="413" y="162.27" width="37.46" height="37.46"/>
      <rect class="cls-4" x="450.46" y="387.05" width="37.46" height="37.46"/>
      <rect class="cls-4" x="450.46" y="349.58" width="37.46" height="37.46"/>
      <rect class="cls-4" x="450.46" y="312.12" width="37.46" height="37.46"/>
      <rect class="cls-4" x="450.46" y="274.66" width="37.46" height="37.46"/>
      <rect class="cls-6" x="450.46" y="237.19" width="37.46" height="37.46"/>
      <rect class="cls-5" x="450.46" y="199.73" width="37.46" height="37.46"/>
      <rect class="cls-4" x="450.46" y="162.27" width="37.46" height="37.46"/>
      <rect class="cls-4" x="487.93" y="387.05" width="37.46" height="37.46"/>
      <rect class="cls-4" x="487.93" y="349.58" width="37.46" height="37.46"/>
      <rect class="cls-4" x="487.93" y="312.12" width="37.46" height="37.46"/>
      <rect class="cls-4" x="487.93" y="274.66" width="37.46" height="37.46"/>
      <rect class="cls-3" x="487.93" y="237.19" width="37.46" height="37.46"/>
      <rect class="cls-5" x="487.93" y="199.73" width="37.46" height="37.46"/>
      <rect class="cls-4" x="487.93" y="162.27" width="37.46" height="37.46"/>
      <rect class="cls-2" x="525.39" y="387.05" width="37.46" height="37.46"/>
      <rect class="cls-1" x="525.39" y="349.58" width="37.46" height="37.46"/>
      <rect class="cls-4" x="525.39" y="312.12" width="37.46" height="37.46"/>
      <rect class="cls-4" x="525.39" y="274.66" width="37.46" height="37.46"/>
      <rect class="cls-4" x="525.39" y="237.19" width="37.46" height="37.46"/>
      <rect class="cls-5" x="525.39" y="199.73" width="37.46" height="37.46"/>
      <rect class="cls-5" x="562.85" y="162.27" width="37.46" height="37.46"/>
      <rect class="cls-5" x="600.32" y="124.8" width="37.46" height="37.46"/>
      <rect class="cls-1" x="525.39" y="162.27" width="37.46" height="37.46"/>
      <rect class="cls-1" x="300.61" y="124.8" width="37.46" height="37.46"/>
      <rect class="cls-1" x="338.07" y="124.8" width="37.46" height="37.46"/>
      <rect class="cls-4" x="375.54" y="124.8" width="37.46" height="37.46"/>
      <rect class="cls-4" x="413" y="124.8" width="37.46" height="37.46"/>
      <rect class="cls-4" x="450.46" y="124.8" width="37.46" height="37.46"/>
      <rect class="cls-1" x="487.93" y="124.8" width="37.46" height="37.46"/>
    </g>
  </g>
</svg>