<?xml version="1.0" encoding="UTF-8"?>
<svg id="Layer_2" data-name="Layer 2" xmlns="http://www.w3.org/2000/svg" viewBox="0 0 3435.7 800">
  <defs>
    <style>
      .cls-1 {
        fill: #e5e5e5;
      }

      .cls-2 {
        fill: #ccc;
      }

      .cls-3 {
        fill: #050505;
      }

      .cls-4 {
        fill: #fff;
      }

      .cls-5 {
        fill: #7f7f7f;
      }

      .cls-6 {
        fill: #333;
      }
    </style>
  </defs>
  <rect x="2.2" width="3431.3" height="800" rx="50" ry="50"/>
  <g>
    <g>
      <rect class="cls-4" x="1582.99" y="589.14" width="21.58" height="21.58"/>
      <rect class="cls-4" x="1604.57" y="589.14" width="21.58" height="21.58"/>
      <rect class="cls-4" x="1626.15" y="589.14" width="21.58" height="21.58"/>
      <rect class="cls-4" x="1658.51" y="589.14" width="21.58" height="21.58"/>
      <rect class="cls-4" x="1680.09" y="589.14" width="21.58" height="21.58"/>
      <rect class="cls-4" x="1712.46" y="589.14" width="21.58" height="21.58"/>
      <rect class="cls-4" x="1734.03" y="589.14" width="21.58" height="21.58"/>
      <rect class="cls-4" x="1734.03" y="610.72" width="21.58" height="21.58"/>
      <rect class="cls-4" x="1734.03" y="632.29" width="21.58" height="21.58"/>
      <rect class="cls-4" x="1734.03" y="653.87" width="21.58" height="21.58"/>
      <rect class="cls-4" x="1755.61" y="589.14" width="21.58" height="21.58"/>
      <rect class="cls-4" x="1658.51" y="610.72" width="21.58" height="21.58"/>
      <rect class="cls-4" x="1658.51" y="632.29" width="21.58" height="21.58"/>
      <rect class="cls-4" x="1658.51" y="653.87" width="21.58" height="21.58"/>
      <rect class="cls-4" x="1680.09" y="653.87" width="21.58" height="21.58"/>
      <rect class="cls-4" x="1626.15" y="610.72" width="21.58" height="21.58"/>
      <rect class="cls-4" x="1626.15" y="632.29" width="21.58" height="21.58"/>
      <rect class="cls-4" x="1626.15" y="653.87" width="21.58" height="21.58"/>
      <rect class="cls-4" x="1582.99" y="610.72" width="21.58" height="21.58"/>
      <rect class="cls-4" x="1582.99" y="632.29" width="21.58" height="21.58"/>
      <rect class="cls-4" x="1582.99" y="653.87" width="21.58" height="21.58"/>
      <rect class="cls-4" x="1604.57" y="653.87" width="21.58" height="21.58"/>
      <rect class="cls-4" x="1787.97" y="589.14" width="21.58" height="21.58"/>
      <rect class="cls-4" x="1809.55" y="589.14" width="21.58" height="21.58"/>
      <rect class="cls-4" x="1831.13" y="589.14" width="21.58" height="21.58"/>
      <rect class="cls-4" x="1831.13" y="610.72" width="21.58" height="21.58"/>
      <rect class="cls-4" x="1831.13" y="632.29" width="21.58" height="21.58"/>
      <rect class="cls-4" x="1831.13" y="653.87" width="21.58" height="21.58"/>
      <rect class="cls-4" x="1787.97" y="610.72" width="21.58" height="21.58"/>
      <rect class="cls-4" x="1787.97" y="632.29" width="21.58" height="21.58"/>
      <rect class="cls-4" x="1787.97" y="653.87" width="21.58" height="21.58"/>
      <rect class="cls-4" x="1809.55" y="653.87" width="21.58" height="21.58"/>
    </g>
    <g>
      <rect class="cls-2" x="1568" y="386.8" width="37.46" height="37.46"/>
      <rect class="cls-2" x="1455.61" y="274.41" width="37.46" height="37.46"/>
      <rect class="cls-1" x="1530.53" y="386.8" width="37.46" height="37.46"/>
      <rect class="cls-2" x="1530.53" y="461.72" width="37.46" height="37.46"/>
      <rect class="cls-1" x="1642.92" y="424.26" width="37.46" height="37.46"/>
      <rect class="cls-4" x="1642.92" y="461.72" width="37.46" height="37.46"/>
      <rect class="cls-2" x="1755.31" y="461.72" width="37.46" height="37.46"/>
      <rect class="cls-4" x="1717.85" y="499.19" width="37.46" height="37.46"/>
      <rect class="cls-4" x="1530.53" y="499.19" width="37.46" height="37.46"/>
      <rect class="cls-4" x="1605.46" y="499.19" width="37.46" height="37.46"/>
      <rect class="cls-4" x="1830.24" y="461.72" width="37.46" height="37.46"/>
      <rect class="cls-4" x="1867.7" y="499.19" width="37.46" height="37.46"/>
      <rect class="cls-1" x="1717.85" y="424.26" width="37.46" height="37.46"/>
      <rect class="cls-4" x="1792.78" y="424.26" width="37.46" height="37.46"/>
      <rect class="cls-4" x="1867.7" y="349.33" width="37.46" height="37.46"/>
      <rect class="cls-1" x="1867.7" y="274.41" width="37.46" height="37.46"/>
      <rect class="cls-2" x="1905.17" y="236.94" width="37.46" height="37.46"/>
      <rect class="cls-1" x="1905.17" y="386.8" width="37.46" height="37.46"/>
      <rect class="cls-4" x="1942.63" y="424.26" width="37.46" height="37.46"/>
      <rect class="cls-4" x="1568" y="424.26" width="37.46" height="37.46"/>
      <rect class="cls-4" x="1493.07" y="349.33" width="37.46" height="37.46"/>
      <rect class="cls-1" x="1455.61" y="386.8" width="37.46" height="37.46"/>
      <rect class="cls-1" x="1568" y="349.33" width="37.46" height="37.46"/>
      <rect class="cls-4" x="1568" y="311.87" width="37.46" height="37.46"/>
      <rect class="cls-4" x="1568" y="274.41" width="37.46" height="37.46"/>
      <rect class="cls-1" x="1530.53" y="274.41" width="37.46" height="37.46"/>
      <rect class="cls-1" x="1493.07" y="236.94" width="37.46" height="37.46"/>
      <rect class="cls-4" x="1568" y="236.94" width="37.46" height="37.46"/>
      <rect class="cls-5" x="1568" y="199.48" width="37.46" height="37.46"/>
      <rect class="cls-1" x="1568" y="162.02" width="37.46" height="37.46"/>
      <rect class="cls-1" x="1605.46" y="386.8" width="37.46" height="37.46"/>
      <rect class="cls-4" x="1605.46" y="349.33" width="37.46" height="37.46"/>
      <rect class="cls-4" x="1605.46" y="311.87" width="37.46" height="37.46"/>
      <rect class="cls-4" x="1605.46" y="274.41" width="37.46" height="37.46"/>
      <rect class="cls-6" x="1605.46" y="236.94" width="37.46" height="37.46"/>
      <rect class="cls-5" x="1605.46" y="199.48" width="37.46" height="37.46"/>
      <rect class="cls-2" x="1605.46" y="162.02" width="37.46" height="37.46"/>
      <rect class="cls-4" x="1642.92" y="386.8" width="37.46" height="37.46"/>
      <rect class="cls-4" x="1642.92" y="349.33" width="37.46" height="37.46"/>
      <rect class="cls-4" x="1642.92" y="311.87" width="37.46" height="37.46"/>
      <rect class="cls-4" x="1642.92" y="274.41" width="37.46" height="37.46"/>
      <rect class="cls-3" x="1642.92" y="236.94" width="37.46" height="37.46"/>
      <rect class="cls-5" x="1642.92" y="199.48" width="37.46" height="37.46"/>
      <rect class="cls-4" x="1642.92" y="162.02" width="37.46" height="37.46"/>
      <rect class="cls-4" x="1680.39" y="386.8" width="37.46" height="37.46"/>
      <rect class="cls-4" x="1680.39" y="349.33" width="37.46" height="37.46"/>
      <rect class="cls-4" x="1680.39" y="311.87" width="37.46" height="37.46"/>
      <rect class="cls-4" x="1680.39" y="274.41" width="37.46" height="37.46"/>
      <rect class="cls-4" x="1680.39" y="236.94" width="37.46" height="37.46"/>
      <rect class="cls-5" x="1680.39" y="199.48" width="37.46" height="37.46"/>
      <rect class="cls-4" x="1680.39" y="162.02" width="37.46" height="37.46"/>
      <rect class="cls-4" x="1717.85" y="386.8" width="37.46" height="37.46"/>
      <rect class="cls-3" x="1717.85" y="349.33" width="37.46" height="37.46"/>
      <rect class="cls-4" x="1717.85" y="311.87" width="37.46" height="37.46"/>
      <rect class="cls-4" x="1717.85" y="274.41" width="37.46" height="37.46"/>
      <rect class="cls-4" x="1717.85" y="236.94" width="37.46" height="37.46"/>
      <rect class="cls-5" x="1717.85" y="199.48" width="37.46" height="37.46"/>
      <rect class="cls-4" x="1717.85" y="162.02" width="37.46" height="37.46"/>
      <rect class="cls-4" x="1755.31" y="386.8" width="37.46" height="37.46"/>
      <rect class="cls-4" x="1755.31" y="349.33" width="37.46" height="37.46"/>
      <rect class="cls-4" x="1755.31" y="311.87" width="37.46" height="37.46"/>
      <rect class="cls-4" x="1755.31" y="274.41" width="37.46" height="37.46"/>
      <rect class="cls-6" x="1755.31" y="236.94" width="37.46" height="37.46"/>
      <rect class="cls-5" x="1755.31" y="199.48" width="37.46" height="37.46"/>
      <rect class="cls-4" x="1755.31" y="162.02" width="37.46" height="37.46"/>
      <rect class="cls-4" x="1792.78" y="386.8" width="37.46" height="37.46"/>
      <rect class="cls-4" x="1792.78" y="349.33" width="37.46" height="37.46"/>
      <rect class="cls-4" x="1792.78" y="311.87" width="37.46" height="37.46"/>
      <rect class="cls-4" x="1792.78" y="274.41" width="37.46" height="37.46"/>
      <rect class="cls-3" x="1792.78" y="236.94" width="37.46" height="37.46"/>
      <rect class="cls-5" x="1792.78" y="199.48" width="37.46" height="37.46"/>
      <rect class="cls-4" x="1792.78" y="162.02" width="37.46" height="37.46"/>
      <rect class="cls-2" x="1830.24" y="386.8" width="37.46" height="37.46"/>
      <rect class="cls-1" x="1830.24" y="349.33" width="37.46" height="37.46"/>
      <rect class="cls-4" x="1830.24" y="311.87" width="37.46" height="37.46"/>
      <rect class="cls-4" x="1830.24" y="274.41" width="37.46" height="37.46"/>
      <rect class="cls-4" x="1830.24" y="236.94" width="37.46" height="37.46"/>
      <rect class="cls-5" x="1830.24" y="199.48" width="37.46" height="37.46"/>
      <rect class="cls-5" x="1867.7" y="162.02" width="37.46" height="37.46"/>
      <rect class="cls-5" x="1905.17" y="124.55" width="37.46" height="37.46"/>
      <rect class="cls-1" x="1830.24" y="162.02" width="37.46" height="37.46"/>
      <rect class="cls-1" x="1605.46" y="124.55" width="37.46" height="37.46"/>
      <rect class="cls-1" x="1642.92" y="124.55" width="37.46" height="37.46"/>
      <rect class="cls-4" x="1680.39" y="124.55" width="37.46" height="37.46"/>
      <rect class="cls-4" x="1717.85" y="124.55" width="37.46" height="37.46"/>
      <rect class="cls-4" x="1755.31" y="124.55" width="37.46" height="37.46"/>
      <rect class="cls-1" x="1792.78" y="124.55" width="37.46" height="37.46"/>
    </g>
  </g>
</svg>