<?xml version="1.0" encoding="UTF-8"?>
<svg id="Layer_2" data-name="Layer 2" xmlns="http://www.w3.org/2000/svg" viewBox="0 0 3435.7 800">
  <defs>
    <style>
      .cls-1 {
        fill: none;
      }

      .cls-2 {
        fill: #fff;
      }

      .cls-3 {
        fill: #333;
      }
    </style>
  </defs>
  <rect class="cls-2" x="2.2" y="0" width="3431.3" height="800" rx="50" ry="50"/>
  <g>
    <g>
      <path class="cls-3" d="M1340.41,135.66h-148.68c49.59,13.57,100.32,26.28,151.88,38.19v-34.99c0-1.78-1.42-3.2-3.2-3.2Z"/>
      <path d="M1772.89,449.2l-67.49-67.49c-1.24-1.24-1.93-2.91-1.93-4.66v-203.21c-51.55-11.9-102.29-24.62-151.88-38.19h-175.49c-1.77,0-3.2,1.43-3.2,3.2v324.16c0,1.77,1.43,3.2,3.2,3.2h242.38c1.74,0,3.41.69,4.65,1.92l65.4,65.4c1.45,1.45,3.66,1.55,4.99.22l79.59-79.59c1.32-1.32,1.23-3.54-.22-4.99ZM1599.8,359.35c0,1.78-1.42,3.2-3.2,3.2h-117.01c-1.78,0-3.2-1.42-3.2-3.2v-117c0-1.78,1.42-3.2,3.2-3.2h117.01c1.78,0,3.2,1.42,3.2,3.2v117Z"/>
      <path class="cls-2" d="M1735.74,239.15h15.69c-6.21-1.01-12.43-2.04-18.64-3.07.07,1.71,1.34,3.07,2.95,3.07Z"/>
      <path d="M1835.9,463.02c0,1.78,1.32,3.2,2.97,3.2h119.04c1.65,0,2.97-1.42,2.97-3.2v-193.09c-41.52-5.47-83.23-11.32-124.98-17.57v210.67Z"/>
      <path d="M1016.25,135.66c-1.78,0-3.2,1.42-3.2,3.2v324.16c0,1.78,1.42,3.2,3.2,3.2h324.16c1.78,0,3.2-1.42,3.2-3.2V173.84c-51.55-11.9-102.29-24.62-151.88-38.19h-175.49ZM1239.94,242.35v117c0,1.78-1.42,3.2-3.2,3.2h-117.01c-1.78,0-3.2-1.42-3.2-3.2v-117c0-1.78,1.42-3.2,3.2-3.2h117.01c1.78,0,3.2,1.42,3.2,3.2Z"/>
      <path class="cls-1" d="M2419.45,135.66h-324.16c-1.78,0-3.2,1.42-3.2,3.2v147.23c34.85,4,69.43,7.75,103.67,11.26v62.01c0,1.78,1.42,3.2,3.2,3.2h117c1.78,0,3.2-1.42,3.2-3.2v-50.2c35.06,3.12,69.59,5.99,103.49,8.64v-178.94c0-1.78-1.42-3.2-3.2-3.2Z"/>
      <path d="M2319.17,359.35c0,1.78-1.42,3.2-3.2,3.2h-117c-1.78,0-3.2-1.42-3.2-3.2v-62.01c-34.24-3.51-68.82-7.26-103.67-11.26v176.94c0,1.78,1.42,3.2,3.2,3.2h324.16c1.78,0,3.2-1.42,3.2-3.2v-145.23c-33.9-2.65-68.43-5.53-103.49-8.64v50.2Z"/>
      <path class="cls-3" d="M1963.85,239.15h95.97c1.65,0,2.97-1.42,2.97-3.2v-97.09c0-1.78-1.32-3.2-2.97-3.2h-324.09c-1.65,0-2.97,1.42-2.97,3.2v97.09s.02.09.02.13c6.21,1.03,12.42,2.05,18.64,3.07h81.5c1.65,0,2.97,1.42,2.97,3.2v10.01c41.75,6.25,83.46,12.1,124.98,17.57v-27.58c0-1.78,1.32-3.2,2.97-3.2Z"/>
      <path class="cls-3" d="M2419.45,135.66h-324.16c-1.78,0-3.2,1.42-3.2,3.2v147.23c34.85,4,69.43,7.75,103.67,11.26v-55c0-1.78,1.42-3.2,3.2-3.2h117c1.78,0,3.2,1.42,3.2,3.2v66.8c35.06,3.12,69.59,5.99,103.49,8.64v-178.94c0-1.78-1.42-3.2-3.2-3.2Z"/>
      <path class="cls-3" d="M1700.27,135.83v-.18h-324.16c-1.78,0-3.2,1.42-3.2,3.2v41.65c84.54,18.91,243.45,35.71,330.56,50.63v-92.1c0-1.78-1.42-3.2-3.2-3.2Z"/>
    </g>
    <g>
      <path class="cls-3" d="M1025.82,694.34v-16.61h24.75c4.68,0,8.3-1.25,10.86-3.75,2.55-2.5,3.83-5.88,3.83-10.14v-5.27l.32-13.73c-1.81,4.9-4.71,8.7-8.7,11.42-3.99,2.71-8.86,4.07-14.61,4.07-8.94,0-16.05-3.01-21.32-9.02-5.27-6.01-7.9-14.18-7.9-24.51v-17.09c0-10.22,2.63-18.36,7.9-24.43,5.27-6.07,12.37-9.1,21.32-9.1,5.75,0,10.62,1.36,14.61,4.07,3.99,2.71,6.89,6.57,8.7,11.58v-14.05h19.48v86.55c0,9.26-3.06,16.58-9.18,21.96-6.12,5.37-14.45,8.06-24.99,8.06h-25.07ZM1048.97,643.25c5.11,0,9.07-1.52,11.9-4.55,2.82-3.03,4.23-7.26,4.23-12.69v-15.33c0-5.43-1.41-9.66-4.23-12.69-2.82-3.03-6.79-4.55-11.9-4.55s-9.05,1.46-11.82,4.39c-2.77,2.93-4.15,7-4.15,12.21v16.61c0,5.22,1.38,9.29,4.15,12.22,2.77,2.93,6.71,4.39,11.82,4.39Z"/>
      <path class="cls-3" d="M1145.26,667.04c-11.28,0-20.23-3.17-26.83-9.5-6.6-6.33-9.9-14.88-9.9-25.63v-20.44c0-10.86,3.3-19.43,9.9-25.71,6.6-6.28,15.54-9.42,26.83-9.42s20.22,3.14,26.83,9.42c6.6,6.28,9.9,14.85,9.9,25.71v20.44c0,10.75-3.3,19.3-9.9,25.63-6.6,6.33-15.54,9.5-26.83,9.5ZM1145.26,649.63c5.32,0,9.45-1.46,12.38-4.39,2.93-2.93,4.39-7.16,4.39-12.69v-21.72c0-5.53-1.46-9.77-4.39-12.69-2.93-2.93-7.05-4.39-12.38-4.39s-9.45,1.46-12.38,4.39c-2.93,2.93-4.39,7.16-4.39,12.69v21.72c0,5.54,1.46,9.77,4.39,12.69,2.93,2.93,7.05,4.39,12.38,4.39Z"/>
      <path class="cls-3" d="M1249.84,665.6c-8.2,0-14.72-2.37-19.56-7.11-4.85-4.74-7.27-11.15-7.27-19.24v-43.43h-24.27v-18.04h24.27v-24.75h20.12v24.75h34.97v18.04h-34.97v42.95c0,2.55.72,4.66,2.16,6.31,1.44,1.65,3.43,2.48,5.99,2.48h26.03v18.04h-27.46Z"/>
      <path class="cls-3" d="M1441.45,665.6c-8.2,0-14.72-2.37-19.56-7.11-4.85-4.74-7.27-11.15-7.27-19.24v-43.43h-24.27v-18.04h24.27v-24.75h20.12v24.75h34.97v18.04h-34.97v42.95c0,2.55.72,4.66,2.16,6.31,1.44,1.65,3.43,2.48,5.99,2.48h26.03v18.04h-27.46Z"/>
      <path class="cls-3" d="M1528.64,667.2c-7.45,0-13.95-1.44-19.48-4.31-5.54-2.87-9.82-6.95-12.85-12.21-3.03-5.27-4.55-11.47-4.55-18.6v-20.76c0-7.13,1.52-13.33,4.55-18.6,3.03-5.27,7.32-9.34,12.85-12.21,5.53-2.87,12.03-4.31,19.48-4.31s13.76,1.44,19.24,4.31c5.48,2.87,9.74,6.89,12.77,12.06,3.03,5.16,4.55,11.2,4.55,18.12v15.97h-54.29v6.07c0,5.96,1.54,10.46,4.63,13.49,3.09,3.03,7.45,4.55,13.09,4.55,4.15,0,7.69-.72,10.62-2.16,2.93-1.44,4.66-3.54,5.19-6.31h19.8c-1.38,7.56-5.32,13.6-11.82,18.12-6.49,4.53-14.43,6.79-23.79,6.79ZM1510.91,610.67v3.03l35.13-.16v-3.03c0-6.07-1.49-10.75-4.47-14.05-2.98-3.3-7.29-4.95-12.93-4.95s-10.27,1.68-13.25,5.03c-2.98,3.35-4.47,8.06-4.47,14.13Z"/>
      <path class="cls-3" d="M1588.67,665.6v-87.82h19.48v16.45c1.06-5.53,3.67-9.93,7.82-13.17,4.15-3.25,9.42-4.87,15.81-4.87,8.62,0,15.51,2.87,20.68,8.62,5.16,5.75,7.74,13.47,7.74,23.15v57.64h-19.96v-55.25c0-5.43-1.41-9.61-4.23-12.53-2.82-2.93-6.63-4.39-11.42-4.39s-8.92,1.49-11.74,4.47c-2.82,2.98-4.23,7.24-4.23,12.77v54.93h-19.96Z"/>
      <path class="cls-3" d="M1728.87,665.6c-8.2,0-14.72-2.37-19.56-7.11-4.85-4.74-7.27-11.15-7.27-19.24v-43.43h-24.27v-18.04h24.27v-24.75h20.12v24.75h34.97v18.04h-34.97v42.95c0,2.55.72,4.66,2.16,6.31,1.44,1.65,3.43,2.48,5.99,2.48h26.03v18.04h-27.46Z"/>
      <path class="cls-3" d="M1806.15,667.2c-8.94,0-16-2.53-21.16-7.58-5.16-5.06-7.74-11.68-7.74-19.88s2.93-15.3,8.78-20.36c5.85-5.06,13.89-7.59,24.11-7.59h21.4v-6.23c0-8.83-5.16-13.25-15.49-13.25-4.69,0-8.41.91-11.18,2.71-2.77,1.81-4.31,4.37-4.63,7.66h-19.16c.42-7.88,3.75-14.26,9.98-19.16,6.23-4.9,14.61-7.35,25.15-7.35,11.18,0,19.85,2.61,26.03,7.82,6.17,5.22,9.26,12.56,9.26,22.04v59.56h-19.48v-16.45c-.75,5.64-3.41,10.06-7.98,13.25-4.58,3.19-10.54,4.79-17.88,4.79ZM1812.54,650.91c5.85,0,10.48-1.44,13.89-4.31,3.41-2.87,5.11-6.71,5.11-11.5v-10.38h-20.44c-4.37,0-7.82,1.23-10.38,3.67-2.55,2.45-3.83,5.59-3.83,9.42s1.36,7.11,4.07,9.5c2.71,2.4,6.57,3.59,11.58,3.59Z"/>
      <path class="cls-3" d="M1925.91,665.6c-8.73,0-15.73-2.61-21-7.82-5.27-5.21-7.9-12.08-7.9-20.6v-70.1h-28.9v-18.04h48.86v87.66c0,3.3.93,5.94,2.79,7.9,1.86,1.97,4.39,2.95,7.58,2.95h25.71v18.04h-27.14Z"/>
      <path class="cls-3" d="M2008.94,667.2c-7.56,0-14.13-1.41-19.72-4.23-5.59-2.82-9.93-6.81-13.01-11.98-3.09-5.16-4.63-11.26-4.63-18.28v-22.04c0-7.03,1.54-13.12,4.63-18.28,3.09-5.16,7.43-9.15,13.01-11.98,5.59-2.82,12.16-4.23,19.72-4.23,10.96,0,19.77,2.85,26.43,8.54,6.65,5.7,10.14,13.44,10.46,23.23h-19.64c-.32-4.58-2.05-8.12-5.19-10.62-3.14-2.5-7.16-3.75-12.06-3.75-5.43,0-9.69,1.46-12.77,4.39-3.09,2.93-4.63,7.11-4.63,12.53v22.2c0,5.43,1.54,9.64,4.63,12.61,3.09,2.98,7.35,4.47,12.77,4.47,5,0,9.05-1.25,12.14-3.75,3.09-2.5,4.79-6.04,5.11-10.62h19.64c-.32,9.8-3.81,17.54-10.46,23.23-6.65,5.7-15.46,8.54-26.43,8.54Z"/>
      <path class="cls-3" d="M2117.52,665.6c-8.73,0-15.73-2.61-21-7.82-5.27-5.21-7.9-12.08-7.9-20.6v-70.1h-28.9v-18.04h48.86v87.66c0,3.3.93,5.94,2.79,7.9,1.86,1.97,4.39,2.95,7.58,2.95h25.71v18.04h-27.14Z"/>
      <path class="cls-3" d="M2199.27,667.2c-7.45,0-13.95-1.44-19.48-4.31-5.54-2.87-9.82-6.95-12.85-12.21s-4.55-11.47-4.55-18.6v-20.76c0-7.13,1.52-13.33,4.55-18.6,3.03-5.27,7.32-9.34,12.85-12.21,5.53-2.87,12.03-4.31,19.48-4.31s13.76,1.44,19.24,4.31c5.48,2.87,9.74,6.89,12.77,12.06,3.03,5.16,4.55,11.2,4.55,18.12v15.97h-54.29v6.07c0,5.96,1.54,10.46,4.63,13.49,3.09,3.03,7.45,4.55,13.09,4.55,4.15,0,7.69-.72,10.62-2.16,2.93-1.44,4.66-3.54,5.19-6.31h19.8c-1.38,7.56-5.32,13.6-11.82,18.12-6.49,4.53-14.43,6.79-23.79,6.79ZM2181.55,610.67v3.03l35.13-.16v-3.03c0-6.07-1.49-10.75-4.47-14.05-2.98-3.3-7.29-4.95-12.93-4.95s-10.27,1.68-13.25,5.03c-2.98,3.35-4.47,8.06-4.47,14.13Z"/>
      <path class="cls-3" d="M2291.24,667.04c-10.43,0-18.68-2.37-24.75-7.11-6.07-4.74-9.1-11.15-9.1-19.24h19.64c0,3.41,1.25,6.02,3.75,7.82,2.5,1.81,5.99,2.71,10.46,2.71h7.03c4.79,0,8.49-.9,11.1-2.71,2.61-1.81,3.91-4.42,3.91-7.82,0-3.19-.91-5.56-2.71-7.11-1.81-1.54-4.58-2.58-8.3-3.11l-21.88-2.87c-7.02-.96-12.43-3.67-16.21-8.14-3.78-4.47-5.67-10.27-5.67-17.4,0-8.3,2.77-14.66,8.3-19.08,5.53-4.42,13.52-6.63,23.95-6.63h7.35c9.79,0,17.67,2.24,23.63,6.71,5.96,4.47,9.05,10.43,9.26,17.88h-19.8c-.11-2.77-1.33-4.97-3.67-6.63-2.34-1.65-5.48-2.48-9.42-2.48h-7.35c-4.26,0-7.5.88-9.74,2.64-2.24,1.76-3.35,4.13-3.35,7.11,0,2.66.82,4.63,2.48,5.91,1.65,1.28,4.07,2.08,7.26,2.4l20.6,2.87c8.09.96,14.18,3.81,18.28,8.54,4.1,4.74,6.15,11.1,6.15,19.08,0,8.52-2.9,15.09-8.7,19.72-5.8,4.63-14.29,6.95-25.47,6.95h-7.03Z"/>
      <path class="cls-3" d="M2372.84,629.36l-.32-30.34h12.61c5.32,0,9.58-1.44,12.77-4.31,3.19-2.87,4.79-6.65,4.79-11.34s-1.6-8.59-4.79-11.42c-3.19-2.82-7.5-4.23-12.93-4.23h-23.79v-18.68h22.83c7.88,0,14.69,1.41,20.44,4.23,5.75,2.82,10.22,6.79,13.41,11.9,3.19,5.11,4.79,11.18,4.79,18.2,0,6.49-1.36,12.21-4.07,17.16-2.71,4.95-6.47,8.84-11.26,11.66-4.79,2.82-10.38,4.29-16.77,4.39v12.77h-17.72ZM2379.38,666.4c-3.3,0-5.96-.98-7.98-2.95-2.02-1.97-3.03-4.5-3.03-7.58s1.01-5.61,3.03-7.59c2.02-1.97,4.68-2.95,7.98-2.95h4.79c3.3,0,5.93.99,7.9,2.95,1.97,1.97,2.95,4.5,2.95,7.59s-1.01,5.62-3.03,7.58c-2.02,1.97-4.69,2.95-7.98,2.95h-4.63Z"/>
    </g>
  </g>
</svg>