<?xml version="1.0" encoding="UTF-8"?>
<svg id="Layer_2" data-name="Layer 2" xmlns="http://www.w3.org/2000/svg" viewBox="0 0 800 800">
  <defs>
    <style>
      .cls-1 {
        fill: none;
      }

      .cls-2 {
        fill: #ccc;
      }

      .cls-3 {
        fill: #fff;
      }
    </style>
  </defs>
  <path class="cls-2" d="M285.29,349.77h-45.19c15.07,4.12,30.49,7.99,46.16,11.61v-10.63c0-.54-.43-.97-.97-.97Z"/>
  <path class="cls-3" d="M416.73,445.06l-20.51-20.51c-.38-.38-.59-.89-.59-1.42v-61.76c-15.67-3.62-31.09-7.48-46.16-11.61h-53.33c-.54,0-.97.44-.97.97v98.52c0,.54.44.97.97.97h73.66c.53,0,1.04.21,1.41.58l19.88,19.88c.44.44,1.11.47,1.52.07l24.19-24.19c.4-.4.37-1.08-.07-1.52ZM364.12,417.75c0,.54-.43.97-.97.97h-35.56c-.54,0-.97-.43-.97-.97v-35.56c0-.54.43-.97.97-.97h35.56c.54,0,.97.43.97.97v35.56Z"/>
  <path class="cls-3" d="M405.44,381.22h4.77c-1.89-.31-3.78-.62-5.66-.93.02.52.41.93.9.93Z"/>
  <path class="cls-3" d="M435.88,449.26c0,.54.4.97.9.97h36.18c.5,0,.9-.43.9-.97v-58.68c-12.62-1.66-25.3-3.44-37.98-5.34v64.03Z"/>
  <path class="cls-3" d="M186.77,349.77c-.54,0-.97.43-.97.97v98.52c0,.54.43.97.97.97h98.52c.54,0,.97-.43.97-.97v-87.89c-15.67-3.62-31.09-7.48-46.16-11.61h-53.33ZM254.75,382.19v35.56c0,.54-.43.97-.97.97h-35.56c-.54,0-.97-.43-.97-.97v-35.56c0-.54.43-.97.97-.97h35.56c.54,0,.97.43.97.97Z"/>
  <path class="cls-1" d="M613.23,349.77h-98.52c-.54,0-.97.43-.97.97v44.74c10.59,1.22,21.1,2.36,31.51,3.42v18.85c0,.54.43.97.97.97h35.56c.54,0,.97-.43.97-.97v-15.26c10.66.95,21.15,1.82,31.45,2.63v-54.38c0-.54-.43-.97-.97-.97Z"/>
  <path class="cls-3" d="M582.75,417.75c0,.54-.43.97-.97.97h-35.56c-.54,0-.97-.43-.97-.97v-18.85c-10.4-1.07-20.92-2.21-31.51-3.42v53.77c0,.54.43.97.97.97h98.52c.54,0,.97-.43.97-.97v-44.14c-10.3-.81-20.8-1.68-31.45-2.63v15.26Z"/>
  <path class="cls-2" d="M474.76,381.22h29.17c.5,0,.9-.43.9-.97v-29.51c0-.54-.4-.97-.9-.97h-98.5c-.5,0-.9.43-.9.97v29.51s0,.03,0,.04c1.89.31,3.78.62,5.66.93h24.77c.5,0,.9.43.9.97v3.04c12.69,1.9,25.36,3.68,37.98,5.34v-8.38c0-.54.4-.97.9-.97Z"/>
  <path class="cls-2" d="M613.23,349.77h-98.52c-.54,0-.97.43-.97.97v44.74c10.59,1.22,21.1,2.36,31.51,3.42v-16.71c0-.54.43-.97.97-.97h35.56c.54,0,.97.43.97.97v20.3c10.66.95,21.15,1.82,31.45,2.63v-54.38c0-.54-.43-.97-.97-.97Z"/>
  <path class="cls-2" d="M394.66,349.82v-.05h-98.52c-.54,0-.97.43-.97.97v12.66c25.69,5.75,73.99,10.85,100.46,15.39v-27.99c0-.54-.43-.97-.97-.97Z"/>
</svg>