<?xml version="1.0" encoding="UTF-8"?>
<svg id="Logo" xmlns="http://www.w3.org/2000/svg" version="1.1" viewBox="0 0 240.9 65.7">
  <!-- Generator: Adobe Illustrator 29.0.0, SVG Export Plug-In . SVG Version: 2.1.0 Build 186)  -->
  <defs>
    <style>
      .st0 {
        fill: none;
      }

      .st1 {
        fill: #1d1d1b;
      }

      .st2 {
        fill: #fff;
      }

      .st3 {
        fill: #009879;
      }
    </style>
  </defs>
  <path class="st3" d="M0,39.2c9.3-4.8,22.9-12.5,39.1-23.8v-3.8C24.8,20.9,10.4,28.4,0,33.3v5.9Z"/>
  <path class="st3" d="M0,27.9c10.3-4.2,24.8-10.7,39.1-19.2v-1.9C25.7,13.5,11.7,17.6,0,20.2v7.7Z"/>
  <path class="st3" d="M39.1,39.3v-19.1c-8.9,7.5-17.7,14-25.1,19.1h25.1Z"/>
  <path class="st3" d="M9,39.3c7-4.2,15.6-9.6,24-16,2-1.5,4-3,6-4.6v-2.4C26.5,25.8,13.7,33.6,3.6,39.3h5.3Z"/>
  <path class="st3" d="M0,17.5c11.4-2,25.4-5.6,39.1-12.1v-2.1C25.3,9.4,11.5,12,0,12.9v4.5Z"/>
  <path class="st3" d="M0,0v10.9c.9,0,1.7-.1,2.6-.2,9.5-.7,22.5-2.4,36.5-8.5V0H0Z"/>
  <path class="st2" d="M0,10.9v2c11.5-.9,25.3-3.6,39.1-9.7v-.9C25.1,8.3,12.1,10,2.6,10.8c-.9,0-1.8.1-2.6.2Z"/>
  <path class="st2" d="M0,20.2c11.7-2.6,25.7-6.8,39.1-13.4v-1.5C25.4,11.8,11.4,15.4,0,17.5v2.8Z"/>
  <path class="st2" d="M0,33.3c10.4-4.9,24.8-12.4,39.1-21.7v-2.9C24.8,17.2,10.3,23.7,0,27.9v5.4Z"/>
  <path class="st2" d="M9,39.3h5c7.4-5.1,16.2-11.6,25.1-19.1v-1.5c-2,1.6-4.1,3.1-6,4.6-8.5,6.4-17,11.8-24,16Z"/>
  <path class="st2" d="M0,39.3h3.6c10-5.7,22.9-13.5,35.4-22.9v-.9C22.9,26.7,9.3,34.5,0,39.2h0Z"/>
  <g>
    <path class="st1" d="M229.6,39.2h5v-7.1c0-2.8,0-7.9,4.1-7.9s1.8.1,2.3.4v-5.1c-.5-.2-1.1-.2-1.5-.2-3,0-5.1,3-5.3,4.8h0v-4.4h-4.5v19.3ZM224.6,34.1c-1.9,1-4,2-6.4,2s-5.3-1.8-5.5-4.9h13.4c0-6.8-2-11.7-9.2-11.7s-9,4.6-9,10.2,3.7,10,10.1,10,4.8-.5,6.6-1.5v-4.1ZM212.6,27.7c.2-2.6,1.7-4.5,4.5-4.5s3.9,2.1,4.1,4.5h-8.6ZM196.6,39.2h5v-15.6h4.4v-3.7h-4.4v-2.4c0-1.5.5-3,2.2-3s1.7.4,2.2.7l.4-4.2c-1-.2-2.4-.4-3.7-.4-4,0-6.2,2.7-6.2,6.6v2.7h-3.7v3.7h3.7v15.6ZM176.6,29.1c0-2.9,1.6-5.7,4.8-5.7s4.9,2.8,4.9,5.7-1,6.7-4.9,6.7-4.8-3.5-4.8-6.7M171.3,29.7c0,5.5,3.7,10,10.1,10s10.1-4.4,10.1-10-4.4-10.2-10.1-10.2-10.1,3.9-10.1,10.2M150.4,39.2h5v-9.5c0-2.5.8-6.4,4.4-6.4s3.3,3.2,3.3,5.6v10.3h5v-12.2c0-4.4-2-7.6-6.6-7.6s-4.8,1.2-6.1,3.1h0v-11.4h-5v28.1ZM127.5,39.2h5v-9.5c0-2.5.8-6.4,4.4-6.4s3.3,3.2,3.3,5.6v10.3h5v-12.2c0-4.4-2-7.6-6.6-7.6s-4.8.9-6.3,3.1h0v-2.6h-4.8v19.3ZM122.3,19.9h-5v9.5c0,2.5-.8,6.4-4.4,6.4s-3.3-3.2-3.3-5.6v-10.3h-5v12.2c0,4.4,2,7.6,6.6,7.6s4.8-1.2,6.3-3.1h0v2.6h4.8v-19.3ZM88,33.7c0-3,3.3-3.3,5.6-3.3h2.2c0,1.5-.2,2.9-1.1,4-.8,1-2,1.7-3.5,1.7s-3.2-.7-3.2-2.4M85.5,25.3c1.7-1.3,3.8-2.1,6-2.1s4.3,1,4.3,4.2h-2.8c-2.1,0-4.6.2-6.5,1.1-1.9.9-3.3,2.6-3.3,5.5s3.3,5.7,6.7,5.7,4.8-1.2,6-3.3h0c0,.6,0,1.9.2,2.9h4.4c-.1-1.5-.2-2.9-.2-4.3,0-1.4,0-2.9,0-4.8v-2.5c0-5.7-2.4-8.1-8.3-8.1s-4.8.6-6.7,1.5l.2,4.3ZM70.4,39.2h5v-7.1c0-2.8,0-7.9,4.1-7.9s1.8.1,2.3.4v-5.1c-.5-.2-1-.2-1.5-.2-3,0-5.1,3-5.3,4.8h0v-4.4h-4.5v19.3ZM52.2,39.2h5.3v-11.5h8.9v-4.1h-8.9v-6.4h9.3v-4.1h-14.6v26.2Z"/>
    <rect class="st0" x="52.2" y="10.7" width="188.7" height="29"/>
  </g>
  <g>
    <path class="st1" d="M210.4,52.4h2.6v13.3h-2.6v-13.3Z"/>
    <path class="st1" d="M216.6,52.4h7.5v2.1h-5v3.3h4.5v2.1h-4.5v3.7h5v2.1h-7.5v-13.3Z"/>
    <path class="st1" d="M226.7,52.4h4.1l3,10.1h0l3-10.1h4.1v13.3h-2.4v-10.9h0l-3.4,10.9h-2.4l-3.4-10.9h0v10.9h-2.4v-13.3Z"/>
  </g>
</svg>