<?xml version="1.0" encoding="UTF-8"?>
<svg xmlns="http://www.w3.org/2000/svg" viewBox="0 0 120 120">
  <path fill="#fff" d="M96.7,29.5l-14-14c-2.2-2.2-5.2-3.5-8.4-3.5H31.2c-5.7,0-10.3,4.6-10.3,10.3v75.5c0,5.7,4.6,10.3,10.3,10.3h57.6c5.7,0,10.3-4.6,10.3-10.3V35.2c0-2.1-.8-4.1-2.3-5.7Z"/>
  <g fill="#000">
    <path d="M45,52l-12,12,12,12,4-4-8-8,8-8-4-4Z"/>
    <path d="M75,52l12,12-12,12-4-4,8-8-8-8,4-4Z"/>
    <rect x="56" y="48" width="8" height="32" transform="rotate(-15 60 64)"/>
  </g>
</svg>
