<?xml version="1.0" encoding="UTF-8"?>
<svg id="Ebene_4" xmlns="http://www.w3.org/2000/svg" version="1.1" viewBox="0 0 120 120">
  <!-- Generator: Adobe Illustrator 29.7.0, SVG Export Plug-In . SVG Version: 2.1.1 Build 138)  -->
  <defs>
    <style>
      .st0 {
        fill: #fff;
      }
    </style>
  </defs>
  <g>
    <path class="st0" d="M58.5,40.3c.2-.8.4-1.6.5-2.5.2-1.3.8-4.5,0-5.5-.5-.6-1.3-.7-1.9-.2-1.4,1.3-.8,5-.4,6.7.3,1.4.7,2.7,1.1,4l.8-2.6Z"/>
    <path class="st0" d="M62.6,52.4c-1.3-1.6-2.4-3.2-3.5-5l-1.4,3.8c-.9,2-1.5,4.1-2.6,6,1.4-.4,2.9-.9,4.3-1.3,1.7-.5,3.4-.8,5.1-1.1,0,0-.3-.5-.4-.5-.5-.7-1.1-1.3-1.6-1.9Z"/>
    <path class="st0" d="M40.7,66.9c-.2.9.5,1.8,1.4,1.8,2-.1,4.5-3.3,5.6-4.7.9-1.2,1.7-2.4,2.5-3.7-1.8.9-3.5,1.7-5.2,2.7-1.3.8-3.9,2.5-4.3,4Z"/>
    <path class="st0" d="M68.8,55.1c-.8,0-1.5.2-2.3.3,1.7,1.4,3.8,2.3,5.8,3.1,1.2.4,2.8,1,4,.4,1.2-.7,1.4-2.2.3-3.1-1.6-1.4-5.8-.9-7.8-.7Z"/>
  </g>
  <g>
    <path class="st0" d="M96.7,29.5l-14-14c-2.2-2.2-5.2-3.5-8.4-3.5H31.2c-5.7,0-10.3,4.6-10.3,10.3v75.5c0,5.7,4.6,10.3,10.3,10.3h57.6c5.7,0,10.3-4.6,10.3-10.3v-62.6c0-2.1-.8-4.1-2.3-5.7ZM53,85.8c-1.1,2.7-3.8,2.5-6.3,2.5v5.7h-2.4v-14.6c1.9,0,3.8-.2,5.7.2,2.9.5,3.9,3.7,2.9,6.2ZM63.7,91.8c-1.3,1.8-2.9,2.1-5.1,2.2-.9,0-2.4.1-3.3,0,0,0-.1,0-.2,0v-14.5c2.8,0,6.2-.5,8.3,1.8,2.3,2.5,2.2,8,.2,10.6ZM75.6,81.3h-5.7v4.4h4.6v2h-4.6v6.3h0c0,0-2.3,0-2.3,0v-14.6h8.1v1.9ZM76,60.5c-3.9,0-7.9-2.1-10.7-4.8-3.7.7-7.3,1.6-10.9,2.9-2.1,3.1-4,6.5-6.8,9-1.7,1.6-5.4,3.5-7.3,1.2-2.2-2.6,2.1-5.6,4.1-6.7,2.2-1.4,4.7-2.4,6.9-3.6,2.2-4.6,4.1-9.2,5.9-14-.9-2.4-1.7-4.7-1.9-7.3-.2-2.1-.6-6.4,2.4-6.6,2.1-.1,3.4,1.8,3.7,3.6.7,4-.9,8.1-1.7,12,1.6,3,3.9,5.5,6,8.2,1.7-.1,3.4-.5,5.1-.6,2.8-.2,9.1-.4,9.4,3.6.2,2.3-2.3,2.9-4.2,2.9Z"/>
    <path class="st0" d="M49.4,81.4c-.8-.2-1.8,0-2.6-.1v5c0,0,0,0,.2,0,.6,0,2,0,2.6-.2,1.9-.7,1.7-4.3-.1-4.8Z"/>
    <path class="st0" d="M58.7,81.3c-.2,0-.8,0-1,0,0,0,0,0-.1,0v10.7h1.6c3.9,0,4.2-7,2.5-9.3-.7-1-1.8-1.4-3-1.4Z"/>
  </g>
</svg>