<?xml version="1.0" encoding="UTF-8"?>
<svg id="Ebene_3" xmlns="http://www.w3.org/2000/svg" version="1.1" viewBox="0 0 120 120">
  <!-- Generator: Adobe Illustrator 29.7.0, SVG Export Plug-In . SVG Version: 2.1.1 Build 138)  -->
  <defs>
    <style>
      .st0 {
        opacity: .5;
      }

      .st0, .st1, .st2, .st3, .st4 {
        fill: #fff;
      }

      .st1 {
        opacity: .4;
      }

      .st2 {
        opacity: .6;
      }

      .st3 {
        opacity: .8;
      }
    </style>
  </defs>
  <g>
    <g>
      <path class="st2" d="M62.5,105.5c25.1,0,45.5-20.4,45.5-45.5h-45.5v45.5Z"/>
      <path class="st3" d="M62.5,14.5v45.5h45.5c0-25.1-20.4-45.5-45.5-45.5Z"/>
    </g>
    <g>
      <path class="st4" d="M39.2,50.9c-.8-.1-2.3-.2-4.5-.2h-3v8.8h3.4c2.5,0,4.1-.2,5-.5.8-.3,1.5-.8,2-1.5.5-.7.7-1.5.7-2.4s-.3-2.1-1-2.8c-.7-.7-1.5-1.2-2.5-1.4Z"/>
      <path class="st4" d="M58.7,35.7H15.8c-2.1,0-3.8,1.7-3.8,3.8v42.9c0,2.1,1.7,3.8,3.8,3.8h42.9c2.1,0,3.8-1.7,3.8-3.8v-42.9c0-2.1-1.7-3.8-3.8-3.8ZM48.1,59.8c-.7,1.3-1.6,2.3-2.6,3.1-1.1.7-2.2,1.2-3.3,1.5-1.5.3-3.7.4-6.5.4h-4.1v11.7h-6.3v-31.1h10.1c3.8,0,6.3.2,7.5.5,1.8.5,3.3,1.5,4.5,3,1.2,1.6,1.8,3.6,1.8,6.1s-.4,3.5-1,4.8ZM39.2,50.9c-.8-.1-2.3-.2-4.5-.2h-3v8.8h3.4c2.5,0,4.1-.2,5-.5.8-.3,1.5-.8,2-1.5.5-.7.7-1.5.7-2.4s-.3-2.1-1-2.8c-.7-.7-1.5-1.2-2.5-1.4Z"/>
    </g>
  </g>
  <g>
    <path class="st0" d="M42,57.5c.5-.7.7-1.5.7-2.4s-.3-2.1-1-2.8c-.7-.7-1.5-1.2-2.5-1.4-.8-.1-2.3-.2-4.5-.2h-3v8.8h3.4c2.5,0,4.1-.2,5-.5.8-.3,1.5-.8,2-1.5Z"/>
    <path class="st0" d="M17,60h8.4v-14.6h10.1c3.8,0,6.3.2,7.5.5,1.8.5,3.3,1.5,4.5,3,1.2,1.6,1.8,3.6,1.8,6.1s-.4,3.5-1,4.8c0,0,0,.1-.1.2h14.5V14.5c-25.1,0-45.5,20.4-45.5,45.5Z"/>
  </g>
  <path class="st1" d="M48,60c-.7,1.2-1.5,2.2-2.5,2.9-1.1.7-2.2,1.2-3.3,1.5-1.5.3-3.7.4-6.5.4h-4.1v11.7h-6.3v-16.5h-8.4c0,25.1,20.4,45.5,45.5,45.5v-45.5h-14.5Z"/>
</svg>