<?xml version="1.0" encoding="UTF-8"?>
<svg id="Ebene_4" xmlns="http://www.w3.org/2000/svg" version="1.1" viewBox="0 0 120 120">
  <!-- Generator: Adobe Illustrator 29.7.0, SVG Export Plug-In . SVG Version: 2.1.1 Build 138)  -->
  <g>
    <rect x="66.9" y="31.8" width="33.3" height="4.6"/>
    <rect x="66.9" y="42.2" width="33.3" height="4.6"/>
    <rect x="66.9" y="52.5" width="33.3" height="4.6"/>
    <rect x="66.9" y="62.8" width="33.3" height="4.6"/>
    <rect x="66.9" y="73.2" width="33.3" height="4.6"/>
    <rect x="66.9" y="83.5" width="33.3" height="4.6"/>
  </g>
  <path d="M106.8,21.2h-46.5c-2.1,0-3.7,1.6-4,3.6h51.2v70.4h-51.2c.3,1.9,2,3.4,3.9,3.4h46.5c2.2,0,4-1.8,4-4V25.3c0-2.2-1.8-4-4-4Z"/>
  <path d="M9.2,21.6v76.7l57.7,9.5V11.9L9.2,21.6ZM46.3,75.3l-6.6-.3-4.4-21.5-4.4,21-6-.3-5.7-28.6,5.6-.4,3.4,21.6,4.7-22.1,5.8-.4,4.4,22.5,4.1-22.9,6.4-.4-7.3,31.9Z"/>
</svg>